<svg width="64" height="46" viewBox="0 0 64 46" fill="none" xmlns="http://www.w3.org/2000/svg">
<path d="M7.919 37.597C7.919 36.815 7.74333 36.1917 7.392 35.727C7.04067 35.251 6.51933 35.013 5.828 35.013C5.60133 35.013 5.39167 35.0243 5.199 35.047C5.00633 35.0583 4.84767 35.0753 4.723 35.098V39.671C4.88167 39.773 5.08567 39.858 5.335 39.926C5.59567 39.994 5.85633 40.028 6.117 40.028C7.31833 40.028 7.919 39.2177 7.919 37.597ZM10.503 37.529C10.503 38.2203 10.418 38.8493 10.248 39.416C10.078 39.9827 9.82867 40.47 9.5 40.878C9.17133 41.286 8.76333 41.6033 8.276 41.83C7.78867 42.0567 7.22767 42.17 6.593 42.17C6.24167 42.17 5.913 42.136 5.607 42.068C5.301 42 5.00633 41.9037 4.723 41.779V45.145H2.19V33.364C2.41667 33.296 2.67733 33.2337 2.972 33.177C3.26667 33.109 3.57267 33.0523 3.89 33.007C4.21867 32.9617 4.54733 32.9277 4.876 32.905C5.216 32.871 5.539 32.854 5.845 32.854C6.58167 32.854 7.239 32.9673 7.817 33.194C8.395 33.4093 8.88233 33.721 9.279 34.129C9.67567 34.5257 9.976 35.013 10.18 35.591C10.3953 36.169 10.503 36.815 10.503 37.529ZM13.2148 37.597C13.2148 36.8037 13.3338 36.1123 13.5718 35.523C13.8211 34.9223 14.1441 34.4237 14.5408 34.027C14.9374 33.6303 15.3908 33.33 15.9008 33.126C16.4221 32.922 16.9548 32.82 17.4988 32.82C18.7681 32.82 19.7711 33.211 20.5078 33.993C21.2444 34.7637 21.6128 35.9027 21.6128 37.41C21.6128 37.5573 21.6071 37.7217 21.5958 37.903C21.5844 38.073 21.5731 38.226 21.5618 38.362H15.8158C15.8724 38.8833 16.1161 39.297 16.5468 39.603C16.9774 39.909 17.5554 40.062 18.2808 40.062C18.7454 40.062 19.1988 40.0223 19.6408 39.943C20.0941 39.8523 20.4624 39.7447 20.7458 39.62L21.0858 41.677C20.9498 41.745 20.7684 41.813 20.5418 41.881C20.3151 41.949 20.0601 42.0057 19.7768 42.051C19.5048 42.1077 19.2101 42.153 18.8928 42.187C18.5754 42.221 18.2581 42.238 17.9408 42.238C17.1361 42.238 16.4334 42.119 15.8328 41.881C15.2434 41.643 14.7504 41.32 14.3538 40.912C13.9684 40.4927 13.6794 39.9997 13.4868 39.433C13.3054 38.8663 13.2148 38.2543 13.2148 37.597ZM19.1648 36.628C19.1534 36.4127 19.1138 36.203 19.0458 35.999C18.9891 35.795 18.8928 35.6137 18.7568 35.455C18.6321 35.2963 18.4678 35.166 18.2638 35.064C18.0711 34.962 17.8274 34.911 17.5328 34.911C17.2494 34.911 17.0058 34.962 16.8018 35.064C16.5978 35.1547 16.4278 35.2793 16.2918 35.438C16.1558 35.5967 16.0481 35.7837 15.9688 35.999C15.9008 36.203 15.8498 36.4127 15.8158 36.628H19.1648ZM33.1215 37.512C33.1215 38.2147 33.0195 38.8607 32.8155 39.45C32.6115 40.028 32.3168 40.5267 31.9315 40.946C31.5462 41.354 31.0815 41.6713 30.5375 41.898C30.0048 42.1247 29.4042 42.238 28.7355 42.238C28.0782 42.238 27.4775 42.1247 26.9335 41.898C26.4008 41.6713 25.9418 41.354 25.5565 40.946C25.1712 40.5267 24.8708 40.028 24.6555 39.45C24.4402 38.8607 24.3325 38.2147 24.3325 37.512C24.3325 36.8093 24.4402 36.169 24.6555 35.591C24.8822 35.013 25.1882 34.52 25.5735 34.112C25.9702 33.704 26.4348 33.3867 26.9675 33.16C27.5115 32.9333 28.1008 32.82 28.7355 32.82C29.3815 32.82 29.9708 32.9333 30.5035 33.16C31.0475 33.3867 31.5122 33.704 31.8975 34.112C32.2828 34.52 32.5832 35.013 32.7985 35.591C33.0138 36.169 33.1215 36.8093 33.1215 37.512ZM30.5375 37.512C30.5375 36.73 30.3788 36.118 30.0615 35.676C29.7555 35.2227 29.3135 34.996 28.7355 34.996C28.1575 34.996 27.7098 35.2227 27.3925 35.676C27.0752 36.118 26.9165 36.73 26.9165 37.512C26.9165 38.294 27.0752 38.9173 27.3925 39.382C27.7098 39.8353 28.1575 40.062 28.7355 40.062C29.3135 40.062 29.7555 39.8353 30.0615 39.382C30.3788 38.9173 30.5375 38.294 30.5375 37.512ZM42.0027 37.597C42.0027 36.815 41.827 36.1917 41.4757 35.727C41.1243 35.251 40.603 35.013 39.9117 35.013C39.685 35.013 39.4753 35.0243 39.2827 35.047C39.09 35.0583 38.9313 35.0753 38.8067 35.098V39.671C38.9653 39.773 39.1693 39.858 39.4187 39.926C39.6793 39.994 39.94 40.028 40.2007 40.028C41.402 40.028 42.0027 39.2177 42.0027 37.597ZM44.5867 37.529C44.5867 38.2203 44.5017 38.8493 44.3317 39.416C44.1617 39.9827 43.9123 40.47 43.5837 40.878C43.255 41.286 42.847 41.6033 42.3597 41.83C41.8723 42.0567 41.3113 42.17 40.6767 42.17C40.3253 42.17 39.9967 42.136 39.6907 42.068C39.3847 42 39.09 41.9037 38.8067 41.779V45.145H36.2737V33.364C36.5003 33.296 36.761 33.2337 37.0557 33.177C37.3503 33.109 37.6563 33.0523 37.9737 33.007C38.3023 32.9617 38.631 32.9277 38.9597 32.905C39.2997 32.871 39.6227 32.854 39.9287 32.854C40.6653 32.854 41.3227 32.9673 41.9007 33.194C42.4787 33.4093 42.966 33.721 43.3627 34.129C43.7593 34.5257 44.0597 35.013 44.2637 35.591C44.479 36.169 44.5867 36.815 44.5867 37.529ZM51.2934 42.17C50.5568 42.1587 49.9561 42.0793 49.4914 41.932C49.0381 41.7847 48.6754 41.5807 48.4034 41.32C48.1428 41.048 47.9614 40.725 47.8594 40.351C47.7688 39.9657 47.7234 39.535 47.7234 39.059V29.216L50.2564 28.808V38.549C50.2564 38.7757 50.2734 38.9797 50.3074 39.161C50.3414 39.3423 50.4038 39.4953 50.4944 39.62C50.5964 39.7447 50.7381 39.8467 50.9194 39.926C51.1008 40.0053 51.3444 40.0563 51.6504 40.079L51.2934 42.17ZM53.8673 37.597C53.8673 36.8037 53.9863 36.1123 54.2243 35.523C54.4737 34.9223 54.7967 34.4237 55.1933 34.027C55.59 33.6303 56.0433 33.33 56.5533 33.126C57.0747 32.922 57.6073 32.82 58.1513 32.82C59.4207 32.82 60.4237 33.211 61.1603 33.993C61.897 34.7637 62.2653 35.9027 62.2653 37.41C62.2653 37.5573 62.2597 37.7217 62.2483 37.903C62.237 38.073 62.2257 38.226 62.2143 38.362H56.4683C56.525 38.8833 56.7687 39.297 57.1993 39.603C57.63 39.909 58.208 40.062 58.9333 40.062C59.398 40.062 59.8513 40.0223 60.2933 39.943C60.7467 39.8523 61.115 39.7447 61.3983 39.62L61.7383 41.677C61.6023 41.745 61.421 41.813 61.1943 41.881C60.9677 41.949 60.7127 42.0057 60.4293 42.051C60.1573 42.1077 59.8627 42.153 59.5453 42.187C59.228 42.221 58.9107 42.238 58.5933 42.238C57.7887 42.238 57.086 42.119 56.4853 41.881C55.896 41.643 55.403 41.32 55.0063 40.912C54.621 40.4927 54.332 39.9997 54.1393 39.433C53.958 38.8663 53.8673 38.2543 53.8673 37.597ZM59.8173 36.628C59.806 36.4127 59.7663 36.203 59.6983 35.999C59.6417 35.795 59.5453 35.6137 59.4093 35.455C59.2847 35.2963 59.1203 35.166 58.9163 35.064C58.7237 34.962 58.48 34.911 58.1853 34.911C57.902 34.911 57.6583 34.962 57.4543 35.064C57.2503 35.1547 57.0803 35.2793 56.9443 35.438C56.8083 35.5967 56.7007 35.7837 56.6213 35.999C56.5533 36.203 56.5023 36.4127 56.4683 36.628H59.8173Z" fill="#9FC4F7"/>
<path d="M6.919 11.597C6.919 10.815 6.74333 10.1917 6.392 9.727C6.04067 9.251 5.51933 9.013 4.828 9.013C4.60133 9.013 4.39167 9.02433 4.199 9.047C4.00633 9.05833 3.84767 9.07533 3.723 9.098V13.671C3.88167 13.773 4.08567 13.858 4.335 13.926C4.59567 13.994 4.85633 14.028 5.117 14.028C6.31833 14.028 6.919 13.2177 6.919 11.597ZM9.503 11.529C9.503 12.2203 9.418 12.8493 9.248 13.416C9.078 13.9827 8.82867 14.47 8.5 14.878C8.17133 15.286 7.76333 15.6033 7.276 15.83C6.78867 16.0567 6.22767 16.17 5.593 16.17C5.24167 16.17 4.913 16.136 4.607 16.068C4.301 16 4.00633 15.9037 3.723 15.779V19.145H1.19V7.364C1.41667 7.296 1.67733 7.23367 1.972 7.177C2.26667 7.109 2.57267 7.05233 2.89 7.007C3.21867 6.96167 3.54733 6.92767 3.876 6.905C4.216 6.871 4.539 6.854 4.845 6.854C5.58167 6.854 6.239 6.96733 6.817 7.194C7.395 7.40933 7.88233 7.721 8.279 8.129C8.67567 8.52567 8.976 9.013 9.18 9.591C9.39533 10.169 9.503 10.815 9.503 11.529ZM12.2148 11.597C12.2148 10.8037 12.3338 10.1123 12.5718 9.523C12.8211 8.92233 13.1441 8.42367 13.5408 8.027C13.9374 7.63033 14.3908 7.33 14.9008 7.126C15.4221 6.922 15.9548 6.82 16.4988 6.82C17.7681 6.82 18.7711 7.211 19.5078 7.993C20.2444 8.76367 20.6128 9.90267 20.6128 11.41C20.6128 11.5573 20.6071 11.7217 20.5958 11.903C20.5844 12.073 20.5731 12.226 20.5618 12.362H14.8158C14.8724 12.8833 15.1161 13.297 15.5468 13.603C15.9774 13.909 16.5554 14.062 17.2808 14.062C17.7454 14.062 18.1988 14.0223 18.6408 13.943C19.0941 13.8523 19.4624 13.7447 19.7458 13.62L20.0858 15.677C19.9498 15.745 19.7684 15.813 19.5418 15.881C19.3151 15.949 19.0601 16.0057 18.7768 16.051C18.5048 16.1077 18.2101 16.153 17.8928 16.187C17.5754 16.221 17.2581 16.238 16.9408 16.238C16.1361 16.238 15.4334 16.119 14.8328 15.881C14.2434 15.643 13.7504 15.32 13.3538 14.912C12.9684 14.4927 12.6794 13.9997 12.4868 13.433C12.3054 12.8663 12.2148 12.2543 12.2148 11.597ZM18.1648 10.628C18.1534 10.4127 18.1138 10.203 18.0458 9.999C17.9891 9.795 17.8928 9.61367 17.7568 9.455C17.6321 9.29633 17.4678 9.166 17.2638 9.064C17.0711 8.962 16.8274 8.911 16.5328 8.911C16.2494 8.911 16.0058 8.962 15.8018 9.064C15.5978 9.15467 15.4278 9.27933 15.2918 9.438C15.1558 9.59667 15.0481 9.78367 14.9688 9.999C14.9008 10.203 14.8498 10.4127 14.8158 10.628H18.1648ZM32.1215 11.512C32.1215 12.2147 32.0195 12.8607 31.8155 13.45C31.6115 14.028 31.3168 14.5267 30.9315 14.946C30.5462 15.354 30.0815 15.6713 29.5375 15.898C29.0048 16.1247 28.4042 16.238 27.7355 16.238C27.0782 16.238 26.4775 16.1247 25.9335 15.898C25.4008 15.6713 24.9418 15.354 24.5565 14.946C24.1712 14.5267 23.8708 14.028 23.6555 13.45C23.4402 12.8607 23.3325 12.2147 23.3325 11.512C23.3325 10.8093 23.4402 10.169 23.6555 9.591C23.8822 9.013 24.1882 8.52 24.5735 8.112C24.9702 7.704 25.4348 7.38667 25.9675 7.16C26.5115 6.93333 27.1008 6.82 27.7355 6.82C28.3815 6.82 28.9708 6.93333 29.5035 7.16C30.0475 7.38667 30.5122 7.704 30.8975 8.112C31.2828 8.52 31.5832 9.013 31.7985 9.591C32.0138 10.169 32.1215 10.8093 32.1215 11.512ZM29.5375 11.512C29.5375 10.73 29.3788 10.118 29.0615 9.676C28.7555 9.22267 28.3135 8.996 27.7355 8.996C27.1575 8.996 26.7098 9.22267 26.3925 9.676C26.0752 10.118 25.9165 10.73 25.9165 11.512C25.9165 12.294 26.0752 12.9173 26.3925 13.382C26.7098 13.8353 27.1575 14.062 27.7355 14.062C28.3135 14.062 28.7555 13.8353 29.0615 13.382C29.3788 12.9173 29.5375 12.294 29.5375 11.512ZM41.0027 11.597C41.0027 10.815 40.827 10.1917 40.4757 9.727C40.1243 9.251 39.603 9.013 38.9117 9.013C38.685 9.013 38.4753 9.02433 38.2827 9.047C38.09 9.05833 37.9313 9.07533 37.8067 9.098V13.671C37.9653 13.773 38.1693 13.858 38.4187 13.926C38.6793 13.994 38.94 14.028 39.2007 14.028C40.402 14.028 41.0027 13.2177 41.0027 11.597ZM43.5867 11.529C43.5867 12.2203 43.5017 12.8493 43.3317 13.416C43.1617 13.9827 42.9123 14.47 42.5837 14.878C42.255 15.286 41.847 15.6033 41.3597 15.83C40.8723 16.0567 40.3113 16.17 39.6767 16.17C39.3253 16.17 38.9967 16.136 38.6907 16.068C38.3847 16 38.09 15.9037 37.8067 15.779V19.145H35.2737V7.364C35.5003 7.296 35.761 7.23367 36.0557 7.177C36.3503 7.109 36.6563 7.05233 36.9737 7.007C37.3023 6.96167 37.631 6.92767 37.9597 6.905C38.2997 6.871 38.6227 6.854 38.9287 6.854C39.6653 6.854 40.3227 6.96733 40.9007 7.194C41.4787 7.40933 41.966 7.721 42.3627 8.129C42.7593 8.52567 43.0597 9.013 43.2637 9.591C43.479 10.169 43.5867 10.815 43.5867 11.529ZM50.2934 16.17C49.5568 16.1587 48.9561 16.0793 48.4914 15.932C48.0381 15.7847 47.6754 15.5807 47.4034 15.32C47.1428 15.048 46.9614 14.725 46.8594 14.351C46.7688 13.9657 46.7234 13.535 46.7234 13.059V3.216L49.2564 2.808V12.549C49.2564 12.7757 49.2734 12.9797 49.3074 13.161C49.3414 13.3423 49.4038 13.4953 49.4944 13.62C49.5964 13.7447 49.7381 13.8467 49.9194 13.926C50.1008 14.0053 50.3444 14.0563 50.6504 14.079L50.2934 16.17ZM52.8673 11.597C52.8673 10.8037 52.9863 10.1123 53.2243 9.523C53.4737 8.92233 53.7967 8.42367 54.1933 8.027C54.59 7.63033 55.0433 7.33 55.5533 7.126C56.0747 6.922 56.6073 6.82 57.1513 6.82C58.4207 6.82 59.4237 7.211 60.1603 7.993C60.897 8.76367 61.2653 9.90267 61.2653 11.41C61.2653 11.5573 61.2597 11.7217 61.2483 11.903C61.237 12.073 61.2257 12.226 61.2143 12.362H55.4683C55.525 12.8833 55.7687 13.297 56.1993 13.603C56.63 13.909 57.208 14.062 57.9333 14.062C58.398 14.062 58.8513 14.0223 59.2933 13.943C59.7467 13.8523 60.115 13.7447 60.3983 13.62L60.7383 15.677C60.6023 15.745 60.421 15.813 60.1943 15.881C59.9677 15.949 59.7127 16.0057 59.4293 16.051C59.1573 16.1077 58.8627 16.153 58.5453 16.187C58.228 16.221 57.9107 16.238 57.5933 16.238C56.7887 16.238 56.086 16.119 55.4853 15.881C54.896 15.643 54.403 15.32 54.0063 14.912C53.621 14.4927 53.332 13.9997 53.1393 13.433C52.958 12.8663 52.8673 12.2543 52.8673 11.597ZM58.8173 10.628C58.806 10.4127 58.7663 10.203 58.6983 9.999C58.6417 9.795 58.5453 9.61367 58.4093 9.455C58.2847 9.29633 58.1203 9.166 57.9163 9.064C57.7237 8.962 57.48 8.911 57.1853 8.911C56.902 8.911 56.6583 8.962 56.4543 9.064C56.2503 9.15467 56.0803 9.27933 55.9443 9.438C55.8083 9.59667 55.7007 9.78367 55.6213 9.999C55.5533 10.203 55.5023 10.4127 55.4683 10.628H58.8173Z" fill="#FFE98C"/>
</svg>
